<?xml version="1.0" encoding="UTF-8" standalone="no" ?>
<!DOCTYPE svg PUBLIC "-//W3C//DTD SVG 1.1//EN" "http://www.w3.org/Graphics/SVG/1.1/DTD/svg11.dtd">
<svg xmlns="http://www.w3.org/2000/svg" xmlns:xlink="http://www.w3.org/1999/xlink" version="1.1" width="1080" height="1080" viewBox="0 0 1080 1080" xml:space="preserve">
<desc>Created with Fabric.js 5.2.4</desc>
<defs>
</defs>
<g transform="matrix(1 0 0 1 540 540)" id="949e13dd-754f-4327-9a76-0b3cb51b98c5"  >
</g>
<g transform="matrix(1 0 0 1 540 540)" id="842eda3c-3264-4192-9240-9cf1dd82201c"  >
<rect style="stroke: none; stroke-width: 1; stroke-dasharray: none; stroke-linecap: butt; stroke-dashoffset: 0; stroke-linejoin: miter; stroke-miterlimit: 4; fill: rgb(255,255,255); fill-rule: nonzero; opacity: 1; visibility: hidden;" vector-effect="non-scaling-stroke"  x="-540" y="-540" rx="0" ry="0" width="1080" height="1080" />
</g>
<g transform="matrix(1 0 0 1 540 540)"  >
<path style="stroke: none; stroke-width: 1; stroke-dasharray: none; stroke-linecap: butt; stroke-dashoffset: 0; stroke-linejoin: miter; stroke-miterlimit: 4; fill: rgb(255,255,255); fill-rule: nonzero; opacity: 1;" vector-effect="non-scaling-stroke"  transform=" translate(-24.5, -31.56)" d="M 48.9177 31.2892 C 48.9177 31.2892 48.8707 31.2445 48.8472 31.2222 C 48.8119 31.1775 48.7766 31.1329 48.7296 31.0994 L 37.3848 23.8548 L 48.7296 16.5097 C 48.8942 16.4092 48.9882 16.2306 48.9882 16.052 C 48.9882 15.8734 48.8942 15.6948 48.7296 15.5943 L 24.8292 0.100465 C 24.6293 -0.0334882 24.3707 -0.0334882 24.1708 0.100465 L 0.258637 15.5943 C 0.258637 15.5943 0.164587 15.6837 0.117562 15.7395 C 0.117562 15.7506 0.0940499 15.7618 0.0822937 15.7841 C 0.0352687 15.8623 0 15.9627 0 16.0632 L 0 47.0621 C 0 47.2519 0.0940499 47.4193 0.258637 47.5198 L 24.1708 63.0248 C 24.1708 63.0248 24.1943 63.0248 24.2061 63.0248 C 24.2061 63.0248 24.2178 63.036 24.2296 63.0472 C 24.3001 63.0807 24.3824 63.0918 24.453 63.103 C 24.4647 63.103 24.4882 63.1141 24.5 63.1141 C 24.594 63.1141 24.6881 63.0918 24.7704 63.0472 C 24.7821 63.0472 24.7939 63.0248 24.8057 63.0248 L 24.8292 63.0248 L 48.7414 47.5198 C 48.9059 47.4193 49 47.2407 49 47.0621 L 49 31.5682 C 49 31.4678 48.9647 31.3785 48.9177 31.3003 L 48.9177 31.2892 Z M 13.2258 24.1673 L 24.5 16.8557 L 35.304 23.8659 L 24.1708 31.0994 C 24.1708 31.0994 24.112 31.1664 24.0885 31.1887 C 24.0533 31.2222 24.018 31.2445 23.9945 31.2892 C 23.971 31.3338 23.971 31.3785 23.9592 31.4343 C 23.9592 31.4789 23.9239 31.5124 23.9239 31.5571 L 23.9239 45.89 L 13.2375 38.958 L 13.2375 24.1673 L 13.2258 24.1673 Z M 35.3628 39.2817 L 25.0878 45.89 L 25.0878 32.6175 L 35.3628 39.2929 L 35.3628 39.2817 Z M 36.4091 38.6119 L 25.5463 31.5571 L 36.3503 24.5357 L 47.3659 31.5682 L 36.4091 38.6119 Z M 24.5 1.23906 L 47.3659 16.0632 L 36.3385 23.1962 L 24.8174 15.7283 C 24.6176 15.5943 24.3589 15.5943 24.1591 15.7283 L 12.6262 23.2073 L 1.63412 16.0632 L 24.5 1.23906 Z M 1.17562 17.1236 L 12.0501 24.1673 L 12.0501 39.2482 C 12.0501 39.438 12.1442 39.6054 12.3088 39.7059 L 23.9122 47.2296 L 23.9122 61.5067 L 1.17562 46.7719 L 1.17562 17.1236 Z M 47.8244 46.7719 L 25.0878 61.5067 L 25.0878 47.2407 L 25.4875 46.984 L 47.8244 32.6175 L 47.8244 46.7719 Z" stroke-linecap="round" />
</g>
</svg>